# xmcd CD database file
#
# Track frame offsets:
#	150
#	11607
#	20415
#	34420
#	45330
#	60152
#	70740
#	84342
#	93512
#	105712
#	117120
#	129825
#
# Disc length: 2024 seconds
#
# Revision: 0
# Processed by: cddbd v1.4PL0 Copyright (c) Steve Scherf et al.
# Submitted via: CDex 1.50beta9
#
DISCID=8807e60c
DTITLE=Sean Wilson - I'll Settle For Old Ireland
DYEAR=1900
DGENRE=Country
TTITLE0=I'll Settle For Old Ireland
TTITLE1=Love's Gonna Live Here Again
TTITLE2=Hometown On The Foyle
TTITLE3=Just Walk On By
TTITLE4=On The Stone Outside Dan Murphy's Door
TTITLE5=Cold Cold Heart
TTITLE6=A Satisfied Mind
TTITLE7=I Love You Forever And Ever
TTITLE8=I Still Miss Someone
TTITLE9=The Rose Of Castlerea
TTITLE10=The Boston Burglar
TTITLE11=Take These Chains From My Heart
EXTD=
EXTT0=
EXTT1=
EXTT2=
EXTT3=
EXTT4=
EXTT5=
EXTT6=
EXTT7=
EXTT8=
EXTT9=
EXTT10=
EXTT11=
PLAYORDER=
